<?xml version="1.0" encoding="UTF-8"?>
<svg xmlns="http://www.w3.org/2000/svg" xmlns:xlink="http://www.w3.org/1999/xlink" width="15px" height="16px" viewBox="0 0 15 15" version="1.1">
<g id="surface1">
<path style=" stroke:none;fill-rule:nonzero;fill:rgb(100%,100%,100%);fill-opacity:1;" d="M 5.015625 11.640625 C 5.015625 11.703125 4.949219 11.75 4.859375 11.75 C 4.761719 11.757812 4.691406 11.710938 4.691406 11.640625 C 4.691406 11.585938 4.761719 11.535156 4.847656 11.535156 C 4.9375 11.527344 5.015625 11.574219 5.015625 11.640625 Z M 4.078125 11.511719 C 4.054688 11.570312 4.117188 11.636719 4.207031 11.652344 C 4.285156 11.683594 4.375 11.652344 4.394531 11.59375 C 4.414062 11.535156 4.355469 11.46875 4.265625 11.441406 C 4.183594 11.421875 4.097656 11.453125 4.078125 11.511719 Z M 5.414062 11.460938 C 5.324219 11.480469 5.265625 11.539062 5.273438 11.605469 C 5.285156 11.664062 5.363281 11.703125 5.453125 11.679688 C 5.539062 11.660156 5.601562 11.605469 5.589844 11.546875 C 5.582031 11.492188 5.5 11.453125 5.414062 11.460938 Z M 7.402344 0.234375 C 3.207031 0.234375 0 3.320312 0 7.382812 C 0 10.632812 2.109375 13.414062 5.125 14.390625 C 5.511719 14.457031 5.648438 14.226562 5.648438 14.035156 C 5.648438 13.855469 5.640625 12.851562 5.640625 12.238281 C 5.640625 12.238281 3.523438 12.675781 3.078125 11.363281 C 3.078125 11.363281 2.734375 10.511719 2.238281 10.292969 C 2.238281 10.292969 1.546875 9.832031 2.285156 9.839844 C 2.285156 9.839844 3.039062 9.898438 3.453125 10.597656 C 4.117188 11.726562 5.226562 11.402344 5.660156 11.207031 C 5.726562 10.738281 5.925781 10.414062 6.140625 10.222656 C 4.453125 10.039062 2.746094 9.800781 2.746094 6.984375 C 2.746094 6.179688 2.976562 5.773438 3.460938 5.257812 C 3.382812 5.066406 3.125 4.28125 3.539062 3.269531 C 4.171875 3.078125 5.625 4.058594 5.625 4.058594 C 6.230469 3.894531 6.878906 3.8125 7.523438 3.8125 C 8.167969 3.8125 8.820312 3.894531 9.421875 4.058594 C 9.421875 4.058594 10.878906 3.074219 11.511719 3.269531 C 11.925781 4.285156 11.667969 5.066406 11.589844 5.257812 C 12.074219 5.777344 12.367188 6.179688 12.367188 6.984375 C 12.367188 9.8125 10.585938 10.035156 8.898438 10.222656 C 9.175781 10.453125 9.410156 10.890625 9.410156 11.582031 C 9.410156 12.566406 9.402344 13.789062 9.402344 14.03125 C 9.402344 14.21875 9.542969 14.453125 9.925781 14.382812 C 12.949219 13.414062 15 10.632812 15 7.382812 C 15 3.320312 11.597656 0.234375 7.402344 0.234375 Z M 2.941406 10.339844 C 2.898438 10.367188 2.910156 10.4375 2.960938 10.492188 C 3.007812 10.539062 3.078125 10.558594 3.117188 10.519531 C 3.15625 10.492188 3.148438 10.421875 3.097656 10.367188 C 3.046875 10.320312 2.980469 10.300781 2.941406 10.339844 Z M 2.613281 10.101562 C 2.589844 10.140625 2.621094 10.1875 2.683594 10.214844 C 2.730469 10.246094 2.792969 10.234375 2.8125 10.195312 C 2.832031 10.15625 2.804688 10.109375 2.742188 10.082031 C 2.683594 10.0625 2.632812 10.070312 2.613281 10.101562 Z M 3.59375 11.144531 C 3.542969 11.183594 3.5625 11.269531 3.632812 11.324219 C 3.703125 11.394531 3.789062 11.402344 3.828125 11.355469 C 3.867188 11.316406 3.851562 11.230469 3.789062 11.171875 C 3.722656 11.105469 3.632812 11.097656 3.59375 11.144531 Z M 3.246094 10.714844 C 3.199219 10.742188 3.199219 10.820312 3.246094 10.886719 C 3.296875 10.953125 3.378906 10.984375 3.417969 10.953125 C 3.464844 10.914062 3.464844 10.839844 3.417969 10.773438 C 3.375 10.703125 3.296875 10.675781 3.246094 10.714844 Z M 3.246094 10.714844 "/>
</g>
</svg>
